<?xml version="1.0" encoding="UTF-8" standalone="no"?>
<!-- Created with Inkscape (http://www.inkscape.org/) -->
<svg id="svg2" xmlns:rdf="http://www.w3.org/1999/02/22-rdf-syntax-ns#" xmlns="http://www.w3.org/2000/svg" height="50mm" width="50mm" version="1.1" xmlns:cc="http://creativecommons.org/ns#" xmlns:dc="http://purl.org/dc/elements/1.1/" viewBox="0 0 744.09448819 1052.3622047">
 <metadata id="metadata7">
  <rdf:RDF>
   <cc:Work rdf:about="">
    <dc:format>image/svg+xml</dc:format>
    <dc:type rdf:resource="http://purl.org/dc/dcmitype/StillImage"/>
    <dc:title/>
   </cc:Work>
  </rdf:RDF>
 </metadata>
 <g id="layer1">
  <path id="path3356" fill="#aa00d4" d="m360.61 373.43c0-1.3261 56.962-54.318 126.58-117.76 138.23-125.96 126.54-120.16 215.39-106.98 30.479 4.5186 29.676 5.1308-152.03 115.85-171.3 104.37-189.94 115.06-189.94 108.89z"/>
  <g fill="#ffd42a">
   <path id="path3368" d="m420.17 281.12c66.229-63.8 173.51-158.98 191.31-169.72 17.732-10.703 61.518-13.168 97.374-5.4803l17.154 3.6778-25.732 17.585c-40.176 27.457-297.62 183.68-308.04 186.92-5.124 1.5953 7.4468-13.248 27.935-32.985z"/>
  </g>
  <path id="path3372" fill="#fc0" d="m168.49 377.8v-51.39l15.725 3.0498c8.6486 1.6774 40.85 6.0194 71.559 9.6489l55.835 6.5991-68.824 41.741c-37.853 22.957-70.055 41.741-71.559 41.741-1.5044 0-2.7354-23.125-2.7354-51.39z"/>
  <g fill="#a80">
   <path id="path3378" d="m90.25 393.85c-0.29777 4.963-0.09365 9.9303-0.07622 14.895-0.03719 3.3003 0.12564 6.6012 0.09097 9.9006 0.10979 1.8425 0.000872 3.6868 0.07475 5.5289-0.0617 1.8057 0.02949 3.6126-0.02884 5.4181 0.07693 1.7557-0.06213 3.5126 0.02935 5.2679-0.05095 1.7214 0.03317 3.4437-0.02604 5.1647 0.06009 1.5082 0.03855 3.017 0.0014 4.5261 0.01557 1.7017 0.02094 3.404 0.0116 5.1065-0.0016 1.5609 0.05018 3.1176-0.01302 4.6784 0.0754 1.736 0.0091 3.4716-0.04865 5.2078-0.79164 1.9146-1.9146 3.6849-2.2546 5.6885-0.42605 1.9373-0.36383 3.9077-0.45347 5.8632 0.04928 1.6276-0.01925 3.2567 0.04178 4.8839-0.23237 1.7532 0.09581 3.2109 1.5748 4.5834 1.7954 1.7706 4.1631 2.8047 5.6527 4.7639 1.3601 1.1081 2.6998 2.4328 3.4461 4.0887 0.55457 1.0067 2.2216 0.9467 3.6626 1.9101 1.8702 0.56603 3.3994 0.72292 5.4241 0.67921 3.639 0.0367 7.2785 0.0583 10.918 0.0387-1.0127 0.34742 5.1196-1.3658 3.937-0.84948-10.966 4.787-22.097 9.353-33.178 13.984-0.81347 0.33994 1.5692-0.75457 2.3709-1.1102 39.766-17.639 56.417-24.784 4.4585-2.2256 3.6314-2.4024 6.8149-5.1174 9.5306-8.1219 1.8488-1.6479 2.6687-3.4993 3.1385-5.5888 0.22881-1.7768 0.27217-3.5736 0.196-5.3585 0.37447-2.1274-0.97555-3.351-2.6544-4.9547-1.1579-1.1485-3.3616-3.3038-4.7508-4.2247-0.29589-0.19611-2.3467-0.61379-2.6242-0.67515-4.1784-0.84545-8.3514-1.5796-12.691-1.927-4.5947-0.27511-9.2102-0.35437-13.818-0.30422-5.1519 0.10086-6.9256-1.7619-6.1141-5.7022 4.2896-4.9077 9.6429-9.2746 14.865-13.624 5.449-3.8772 9.3056-8.6666 13.457-13.31 2.6592-3.3989 4.3919-7.0894 5.391-10.952 1.0349-5.1664 0.93069-10.411 0.92942-15.622 0.089-4.0195 0.0351-8.1949-1.7761-12.022-1.339-2.1531-3.9682-3.1726-6.2032-4.6669-3.0484-0.90532-6.3326-0.83035-9.5845-0.90907-2.4301 0.13139-4.9585-0.28324-7.381-0.0429-0.75707 0.0751-3.1767 0.70515-3.9468 0.89726 11.164-4.7207 22.329-9.4414 33.493-14.162-12.181 5.3614-24.362 10.723-36.543 16.084-0.47735 0.2202-1.9161 0.87262-1.4321 0.66088 11.134-4.8709 22.255-9.759 33.383-14.639l-37.871 11.296c12.044-5.3591 24.077-10.733 36.133-16.077 0.46016-0.20395 1.8732-0.77141 1.4136-0.56672-10.947 4.8753-21.919 9.7195-32.878 14.579 26.037-11.281 27.549-17.076 48.56-15.987 4.0445 0.22077 7.9798 0.54675 11.274 2.5227 2.7565 1.811 5.5516 3.4598 7.086 6.0939 1.969 4.178 2.4416 8.6307 2.2411 13.044-0.0566 5.3395-0.0772 10.688-0.52711 16.018-0.76538 4.2358-2.298 8.2143-4.7887 12.063-5.043 6.7277 2.2625-2.7238-3.7213 4.0197-3.0375 3.4232-5.3647 7.2363-9.737 9.9161-5.0651 4.1517-9.8758 8.4746-14.755 12.731-0.43164 0.14176-0.83861 0.33882-1.2949 0.42527-0.28851 0.0546-0.98783-0.39319-0.69358-0.42575 0.97762-0.10814 3.0004 0.79752 3.9692 0.23729 4.6556 0.14092 9.3244 0.19863 13.949 0.68126 4.5892 0.5417 9.1398 1.3397 13.491 2.5848 3.4448 1.4809 6.1638 3.8103 8.505 6.2098 1.9189 2.0348 4.3071 3.9854 3.9941 6.6445-0.0351 1.8967 0.0938 3.7918-0.017 5.688-0.17078 2.4051-0.54285 5.06-2.4124 7.0476-0.22269 0.23785-2.3946 2.5517-2.5088 2.6975-0.4575 0.58401-0.64627 1.294-1.2186 1.8164-0.5106 0.46607-1.3806 0.63444-1.9402 1.0669-1.3054 1.0088-1.8587 2.5152-3.6162 3.2344-71.55 32.934-27.282 12.362-4.3442 2.512 0.80843-0.34717-1.3025 1.032-2.1079 1.3832-12.254 5.3436-24.57 10.611-37.025 15.681-0.81566 0.33198-3.6099 0.32274-4.4637 0.34383-3.7499-0.0168-7.5134 0.0756-11.251-0.19246-2.4476-0.33316-4.6824-1.0083-6.7532-2.0713-2.2338-0.86389-4.2076-1.8326-5.1249-3.7489 0.21762-1.4312-2.3405-2.1831-2.8811-3.3809-1.1368-1.7377-3.933-2.6075-5.1568-4.3536-1.9519-1.8539-3.2213-3.9401-3.0418-6.3552 0.04862-1.6438-0.0379-3.2893 0.01726-4.9333-0.06736-2.0825 0.08287-4.1616 0.19843-6.2414 0.43969-2.1239 0.4119-4.2176 1.9469-6.1005 1.3819-0.93477 0.26769-3.0615 0.60583-4.398-0.06524-1.5573-0.0096-3.1106-0.01302-4.6682-0.0093-1.7056-0.0042-3.4107 0.01161-5.1155-0.0379-1.5094-0.05782-3.0185 0.0014-4.5272-0.06043-1.7143 0.02632-3.43-0.02604-5.1447 0.08831-1.763-0.04514-3.5273 0.02935-5.2906-0.05958-1.798 0.03396-3.5976-0.02884-5.3958 0.0724-1.8614-0.03328-3.7249 0.07475-5.5867-0.03521-3.3228 0.12855-6.6472 0.09097-9.9709 0.01727-4.9447 0.22337-9.8925-0.07622-14.836l36.202-13.998z"/>
   <path id="path3380" d="m212.62 444.37c-3.1073 3.1215-7.5125 5.3727-10.431 8.5962-1.4214 1.3255-2.1652 2.7644-2.4079 4.4484-0.2468 1.6664-0.0742 3.3447-0.0535 5.0165 0.0142 1.1806-0.16953 0.52103 0.66518 0.39115 0.62633-0.0975 1.2696 0.137 1.9089 0.14232 2.1704 0.0516 4.3435 0.006 6.5143-0.0224 2.3645-0.0112 4.7276-0.0224 7.092-0.0196 2.6816 0.0112 5.3641-0.014 8.0454 0.0196 2.4481-0.0305 4.8965-0.008 7.3448-0.0294 0.65825-0.20003 1.4746 0.20199 2.1358 0.002 0.71571-0.21684 1.147-0.81444 1.8528-1.0492 0.42392-0.14092 1.7338-0.47108 1.3327-0.29571-11.229 4.9109-22.566 9.6776-33.848 14.516 1.2949-0.21488 93.706-39.598 4.2971-1.2641-0.74653 0.32008 1.4569-0.69137 2.1296-1.0948 1.1317-2.1867 0.88323-4.67 0.86531-6.9814-0.0142-3.041-0.0558-6.0812-0.0459-9.1223-0.006-2.3277-0.0968-4.6531-0.10359-6.9802-0.4098-0.39412 0.6173-4.5875-0.0716-2.8864-2.1095 0.0849-4.2238 0.072-6.3366 0.0846-1.2967 0.2513-2.9522-0.30669-4.2121 0.028-0.67552 0.17901-2.3281 1.1264-3.1728 1.43 68.788-28.955 37.48-20.737 30.592-11.649l-37.443 12.271c1.7783-1.4278-0.1851 0.28853 1.5289-1.8378 7.6813-9.5286 43.845-4.9182 37.371-17.918 2.7435-0.70086 5.457-0.50969 8.3355-0.48506 2.612 0.0454 5.3572 0.10814 7.618 1.219 2.598 2.0316 2.2124 3.0437 2.1403 5.6894-0.006 2.3477-0.0917 4.6939-0.0807 7.0422 0.0334 3.0366 0.0391 6.0731 0.0781 9.1096 0.00025 2.625 0.1984 5.2626-0.092 7.8799-0.10019 1.1169 0.0476 1.9934-1.3287 2.6115-0.017 0.008-93.045 41.042-4.0599 1.7228-16.883 7.2722-25.929 16.297-42.515 16.171-2.4123-0.0224-4.8248 0.001-7.237-0.0294-2.7034 0.0311-5.4078 0.008-8.1115 0.028-2.3723 0.0112-4.7438 0.0196-7.1163 0.0289-2.3163-0.0252-4.6601-0.0168-6.9251-0.43463-2.5953-0.60749-5.5417-1.8079-5.5114-4.1757-0.0435-1.7469 0.0192-3.4952-0.11854-5.2402 0.0997-2.0245 0.20633-4.2896 1.6964-6.0024 0.8766-0.98219 1.4624-2.11 2.4141-3.051 2.196-2.1713 5.6743-3.6171 7.9257-5.7712l37.339-12.105z"/>
   <path id="path3382" d="m296.03 366.82c5.1622 2.8924 8.6673 6.8761 11.128 11.308 1.9314 4.222 1.8426 8.7443 1.935 13.158 0.45735 4.6834-1.2713 9.1199-3.0079 13.543-1.747 4.102-3.6343 8.1584-5.8231 12.136-1.8996 3.1685-3.8613 6.304-5.985 9.3898-1.6666 2.304-3.2816 4.636-4.8354 6.9845-1.4397 2.1808-3.1096 4.2862-4.1091 6.6161-0.81324 2.0473-2.0617 3.9523-2.9682 5.9806-1.2312 1.333-0.91238 3.0581-0.7872 4.5992 0.10218 1.7154 0.21199 3.4316 0.22982 5.1489 0.0365 1.7668-0.006 3.5337 0.0345 5.3006 0.0906 3.2442-0.6947 1.9726 0.80178 2.013 2.1725-0.00057 4.3468-0.0112 6.5214-0.0224 2.3609-0.0252 4.7218-0.0342 7.0828-0.0496 2.1356-0.1356 3.7745-1.447 5.9001-1.9958 0.57226-0.58972 2.0427 0.23785 2.6315-0.1552 0.25898-0.17286 0.56635-0.88633 0.26464-0.75942-30.418 12.792-43.987 21.006-32.796 14.276 0.29899-0.23926 2.9279-1.1493 3.0813-1.313 0.42251-0.4508 0.44798-1.056 0.75748-1.5568 0.17689-0.3082 0.15255-0.74944 0.53049-0.92465 29.807-13.812 63.958-27.862 1.6223-0.76936-2.6479 1.1508 2.1823-1.3288 2.7726-1.5238 0.94598-0.60979 0.52262-0.29456 1.2846-0.9344l37.434-12.41c-0.64542 0.94368-0.29961 0.45192-1.042 1.4734-0.80429 1.1587-1.2425 1.0828-2.6351 1.7099-11.863 5.3415-24.853 9.4678-35.54 16.087-9.957 6.1672 48.307-15.668 32.992-15.144-0.3757 0.30041-1.0181 0.4722-1.1684 0.87033-0.35835 0.9488 0.47057 1.16-0.43573 1.9293-0.25275 0.2146-0.72422 0.22552-0.9813 0.43707-0.29996 0.24681-0.41869 0.5918-0.62805 0.8877-13.889 4.9277 8.0075-2.8714-37.014 16.415-0.5816 0.24905-2.7043-0.28896-3.2252 0.58838-2.2191 0.8192-4.2847 1.289-6.8132 1.0307-2.3592 0.002-4.7186 0.0252-7.0778 0.006-2.534-0.0367-5.1121-0.13055-7.4626-0.92583-2.7224-1.3048-3.5328-2.8302-3.23-5.1738 0.0385-1.7577 0.006-3.515-0.00079-5.2728-0.0345-1.675-0.0198-3.3512-0.15992-5.0241-0.13217-2.0243-0.44139-4.0726-0.10217-6.0894 1.6449-1.5753 1.5559-3.8259 3.3283-5.3948 0.74607-2.5238 1.9544-4.977 3.8595-7.1412 1.4714-2.4757 3.3186-4.7623 4.7567-7.2609 2.5419-2.8788 4.3631-6.0643 6.2447-9.2022 2.7306-3.6801 4.0553-7.779 6.1574-11.678 1.5533-4.195 3.9286-8.293 3.5571-12.748-0.0334-4.0481 0.094-8.1838-1.3246-12.12-1.9446-3.9419-4.9305-7.4234-9.8788-9.5428l34.123-16.754z"/>
   <path id="path3384" d="m393.2 414.63c-7.2695-0.074-14.54-0.0824-21.81-0.035-2.4143 0.27651-5.017-0.24121-7.4216 0.0431-1.7909 0.2118-3.3659 1.0058-5.1927 1.2689-0.99313 0.77776-3.1378 0.36266-4.2245 0.69486-0.40264 0.12299-1.186 0.87947-0.80254 0.72956 41.439-16.199 50.319-18.73 36.481-14.748-0.27624 0.1723-0.5522 0.34431-0.82827 0.51647-0.17321 0.23169-0.25444 0.5103-0.51981 0.69462-1.8909 1.3134-1.2534-0.36166-2.8722 2.4154-1.7626 1.8583-3.9393 3.6329-5.2349 5.6717-1.0148 1.9055-1.0483 3.9428-1.139 5.9466-0.0385 1.7924 0.0625 3.5836 0.0908 5.3748 0.006 0.21376 0.14519 0.44626 0.0198 0.64144-0.0982 0.15268-0.31733-0.40779-0.11321-0.49596 0.0405-0.0168 2.7838 1.5178 3.1851 1.6287 2.0149 0.58931 4.1574 0.64556 6.3164 0.62693 2.3747-0.0112 4.7484-0.0485 7.1231-0.0378 2.5388 0.001 5.0758-0.028 7.6144-0.0224 2.6056 0.003 5.2124 0.0319 7.8173-0.002 2.3976-0.10589 5.0024 0.42898 7.0616-0.52215 13.081-5.102 30.475-11.849-33.438 13.425-0.87575 0.34629 1.5345-0.91258 2.2312-1.4193 2.086-1.5086 3.3816-3.5234 6.1796-4.4256 0.45656-1.0242 2.3973-1.5342 2.9289-2.4829 1.259-2.2468-0.25926-0.64236 1.1868-2.012 1.3185-1.7182 2.5732-3.5143 3.9976-5.2454 1.1571-1.7266 3.1605-3.474 2.8882-5.4643 5.5912 8.7298-0.80132 1.2683 38.678-13.937 0.33296-0.12831-0.0767 0.53017-0.0501 0.79466 0.0255 0.24177 0.51642 2.0727 0.54631 2.1866 1.1602 1.9353 1.5603 3.9873 1.5901 6.0662-0.0385 1.818-0.19954 3.6364-0.16387 5.4539-0.11831 1.8191-0.017 3.6402-0.0795 5.4588 0.0226 1.797 0.0484 3.5971-0.0198 5.3939 0.0393 2.2779-0.006 4.5567-0.0198 6.835 0.0226 2.2014 0.0521 4.405 0.0226 6.6074-0.0289 2.2567 0.0198 4.5134 0.008 6.7699-0.0775 2.9878-0.0671 5.9755-0.0662 8.9635-0.006 2.7349 0.077 5.4702 0.0286 8.2049-0.0427 2.6379 0.0597 5.2768-0.006 7.9142-0.0283 2.8261 0.0198 5.6514-0.0141 8.4777 0.049 2.8632-0.001 5.7261-0.008 8.5897-0.0609 3.5317 0.003 7.0638-0.0467 10.595 0.0702 3.4204-0.0668 6.8445 0.0637 10.264-0.0767 2.8638 0.034 5.727 0.0113 8.5908-0.0255 2.5814-2.1316 4.6485-2.679 7.1764-0.72142 3.2014-3.7061 5.7326-6.7091 8.0842-3.9216 2.7349-8.2446 5.1332-12.178 7.8633-13.152 8.7393-3.2583 2.3801-42.159 17.652-0.74424 0.2922-1.6702 0.25858-2.4828 0.44194-2.2465 0.507-4.4542 1.2559-6.5969 1.9392-4.4483-0.0678-8.4088 1.2102-12.641 1.6851-5.5671 1.365-11.918 0.88112-17.776 0.82206-6.6907-0.0588-13.381-0.13083-20.073-0.10562-4.4506-0.36747-9.423 0.74415-13.598-0.51949-3.7282-1.7034-5.4405-4.3888-6.3724-7.3517-1.2537-3.0783-2.7753-6.0488-3.2987-9.2476-0.80316-3.3945-1.9297-6.7286-2.4815-10.152-0.62267-4.4279-0.58288-8.8602 0.21341-13.271 1.538-4.4436 4.0788-8.6981 7.8362-12.448 2.5681-2.13 4.2701-5.1683 7.9281-6.4482 13.173-5.399 27.175-9.9182 39.519-16.197 11.311-5.7535-24.241 9.7754-36.403 14.612-0.5563 0.22132 1.0285-0.53499 1.5793-0.76284 13.103-5.4205 26.234-10.807 39.377-16.18 1.5387-0.62906 1.1707-0.44057 3.1092-0.44192 2.4972-0.71439 5.1316-1.204 7.6547-1.922 2.5906-0.0286 5.172-0.216 7.7728-0.12747 2.5096-0.00039 5.0181 0.0353 7.5284 0.0112 1.7066 0.014 3.4135 0.0317 5.1202 0.014l-35.95 18.2c-1.7234-0.0224-3.447-0.006-5.1705 0.00076-2.4669-0.0406-4.9327-0.0224-7.3992 0.0168-2.3664 0.14904-4.82 0.16585-7.0034 0.89142-2.6162 0.47148-4.9497 1.5952-7.7355 1.735-12.145 5.6085-32.408 12.451 33.691-13.845 0.59352-0.23617-0.77681 0.82189-1.3618 1.0682-13 5.4732-25.734 11.31-39.31 16.055-12.459 4.355 23.968-9.9212 35.952-14.882-2.2082 2.4338-2.7769 0.69778-4.4672 1.9202-1.5577 1.1266-1.2541 3.3087-4.1547 3.7506-3.5517 5.3833 1.2167-1.2203-3.1681 3.1344-2.5336 2.5162-3.4372 5.6332-5.4862 8.3155-0.95353 4.1818-1.1833 8.3173-0.53099 12.544 0.45893 3.4362 1.382 6.8131 2.5499 10.167 0.29628 3.176 1.6292 6.002 3.1552 8.9852 0.3436 1.7048 0.83282 3.9623 3.8364 4.2954 4.2475-0.15773 8.5115 0.11122 12.763 0.0289 6.6552 0.0902 13.312 0.10842 19.968 0.13979 5.8912-0.0437 11.742-0.0972 17.368-1.4838 4.0044-0.84508 8.243-0.87722 12.09-2.0903 2.2329-0.63038 4.5607-1.1547 6.771-1.8176 0.71271-0.21376 2.7496-1.0008 2.0833-0.72361-37.404 15.56-46.056 20.141-33.047 13.38 3.9107-2.7688 7.8135-5.4819 12.209-7.846 2.9434-1.8898 5.3384-3.9915 7.7746-6.1792 0.18029-1.5861 0.1067-3.9344 1.197-5.378 0.21906-0.28991 0.77525-0.37062 1.1629-0.55594 0.18907-0.31377 0.3781-0.62758 0.56714-0.94138-0.0226-2.8662 0.0869-5.7317 0.0113-8.598 0.12765-3.4346-0.006-6.8736 0.0637-10.309-0.0498-3.5204 0.0142-7.0415-0.0467-10.562-0.006-2.8619-0.056-5.7231-0.008-8.5846-0.0331-2.823 0.0142-5.6449-0.0141-8.4676-0.0645-2.6364 0.0393-5.2744-0.006-7.9114-0.0492-2.7414 0.034-5.4835 0.0283-8.2252 0.00077-2.9723 0.0113-5.9444-0.0662-8.9165-0.008-2.2587 0.0376-4.5175 0.008-6.7763-0.0292-2.2079 0.001-4.4169 0.0226-6.6239-0.017-2.2731-0.0603-4.5467-0.0226-6.8195-0.071-1.7927-0.0439-3.5887-0.0226-5.3817-0.062-1.825 0.0433-3.6526-0.017-5.4788 0.11718-1.8162 0.088-3.6367 0.18425-5.455 0.11407-1.9178 0.35498-3.8074-1.0697-5.55-0.0877-0.3098-1.3133-3.5848-1.1478-3.6651 10.853-5.2668 32.481-26.555 40.239-14.491 0.95931 2.66 0.45042 4.9726-1.6272 7.3484-0.75541 1.1179-1.5542 2.4933-2.6216 3.4836-0.24709 0.22916-0.75935 0.3147-0.90834 0.58182-0.24822 0.44492-0.14038 0.94967-0.21057 1.4245-0.21568 0.25914-0.31615 0.58583-0.64659 0.77726-0.32017 0.18546-0.9742 0.0302-1.1816 0.28183-0.61503 0.74592 0.19954 2.7281-2.2203 3.6789-0.22134 0.44875-0.25049 0.96913-0.66374 1.3463-0.5578 0.50918-1.7923 0.38196-2.5303 0.76381-1.2049 0.62346-1.8981 1.7718-2.9371 2.5062-10.843 9.6196-28.116 15.608-44.855 18.766-2.5877-0.035-5.1733-0.0415-7.7614-0.0252-2.6003-0.0361-5.2028-0.003-7.8037 0.001-2.5229 0.008-5.0446-0.008-7.5678 0.008-2.4659 0.0224-4.9372 0.0224-7.3933-0.15353-2.622-0.29906-5.1842-0.79819-7.43-1.8294-2.0473-1.0623-5.3056-2.5751-5.4008-4.4842-0.017-1.8088 0.017-3.6181-0.0549-5.4272-0.0807-2.2955 0.11745-4.5919 0.61035-6.8643 0.13643-0.38059 0.95161-2.7199 1.1499-2.9924 0.89565-1.2309 3.0533-2.1072 3.4445-3.5933 2.5258-1.0078 0.64505-2.3701 2.2376-3.2078 0.25331-0.13335 0.68383 0.0712 0.9496-0.0499 0.32979-0.15016 0.4402-0.45536 0.66031-0.68301 8.2586-10.794 28.469-14.519 44.788-17.338 4.2458-0.93768 8.6634-0.57238 13.067-0.56824 7.3159 0.049 14.633 0.0367 21.948-0.035l-35.728 18.093z"/>
   <path id="path3386" d="m517.31 386.16c6.4383-0.33779 13.433 0.86159 19.682-0.43777 13.241-5.0798 29.909-11.211-33.153 13.242-4.5072 1.7477 3.7541-2.0037 4.4803-2.4395 3.2165-1.3145 5.017-3.8218 7.6238-5.6581 1.3198-1.8591 4.1016-2.9482 5.2173-4.8487 0.3449-2.0614 2.5827-3.2161 3.424-5.1172 0.39763-1.6677 0.30358-3.3606 0.29294-5.0434 0.0838-1.5847-0.094-3.1684-0.0889-4.7515-0.91611-0.83509-3.4153-1.9769-4.9036-2.8529-3.2214-1.1254-6.468-1.8389-9.9402-2.5027-3.1178-1.7776-7.2627-0.66133-10.865-1.5596-3.0335-0.75087-6.1583-1.1131-9.3222-1.396-2.4662-0.0644-4.9344-0.0375-7.4014-0.0224-0.0461-0.00014-2.4703-0.0112-2.5249 0.002-0.78632 0.18266-2.5663 1.4462-1.8438 1.1629 35.175-13.79 47.31-20.96 35.42-14.008-2.0361 1.5408-4.3138 3.3074-5.2493 5.3439-1.6496 2.0401-2.4485 4.3126-3.5313 6.5103-1.2352 1.6569-1.9299 3.4639-2.5408 5.2722-0.22049 1.5993-0.27851 3.2045-0.24709 4.8101-0.0829 1.7971 0.0543 3.5944-0.017 5.3917 0.017 1.7444 0.001 3.4888 0.0526 5.2338-0.064 1.8554-0.0478 3.7113-0.0198 5.5675-0.0226 1.6886 0.017 3.3779-0.0113 5.0673 0.017 1.7517-0.0142 3.5015 0.0113 5.2535 0.0719 1.6889-0.33907 3.363 0.45427 4.9824 1.0926 1.2736 1.2169 2.8199 2.7258 3.88 1.4908 1.8601 2.8228 3.5225 4.1838 5.4184 0.71403 2.1309 2.8635 3.4664 4.4149 5.1735 2.0511 1.3528 3.6292 3.012 5.4146 4.5318 1.3812 1.1503 3.7828 1.1876 5.855 1.2457 2.5646-0.0885 5.1346-0.0821 7.7021-0.11878 2.4239-0.008 4.8491-0.028 7.274-0.014 1.5503-0.27427 3.5761 0.38969 5.0616-0.003 0.77732-0.20536 1.2814-0.74 1.9585-1.0761-12.343 4.9386-24.616 9.9635-37.029 14.816 1.2761-0.81094 2.7283-1.6015 4.2254-2.2126 13.021-5.3149 26.393-10.223 39.164-15.826 11.934-5.2357-24.434 9.8158-36.651 14.724 2.6331-0.58289 3.7774-2.1819 5.9139-3.2233 1.6433-0.32332 2.9289-1.9067 4.0578-2.8743 2.2375-0.93342 3.2032-2.581 3.7325-4.2829 0.0558-0.25522 0.11151-0.5103 0.16727-0.76546l39.846-13.704c-0.0458 0.29268-0.092 0.5853-0.13783 0.87795-0.38074 2.1634-0.8255 4.2659-2.4277 6.1796-1.547 0.64105-0.93338 0.40309-1.9558 1.4754-0.81369 0.85341-2.1551 0.23841-1.902 1.7132-0.15963 0.0798-1.7875 0.89529-1.8154 0.90244-0.47292 0.1213-1.0814-0.0577-1.4986 0.13923-1.1248 0.53143-0.71978 2.3381-2.5917 2.4332-127.12 51.206 27.884-11.35-6.9866 2.7856-13.038 5.2852-25.989 10.674-38.984 16.01-2.633 0.35641-5.3869-0.0252-8.068 0.10982-2.4263 0.0196-4.8527 0.014-7.2782 0.0418-2.7309-0.006-5.4882 0.0507-8.1857-0.29361-2.8316-0.54039-5.5882-1.4308-7.4083-3.1046-2.0187-1.5557-3.5866-3.3635-5.6747-4.8873-1.8186-1.7594-4.0962-3.3262-4.8308-5.5347-1.0242-1.6537-2.5236-3.028-3.5152-4.6582-1.7836-1.4883-2.5096-3.0834-3.5584-4.855-1.1293-1.9686-1.4924-3.8239-1.2419-5.9461 0.0255-1.7545-0.008-3.5068 0.0113-5.2611-0.0286-1.6866 0.0113-3.3731-0.0113-5.059 0.0286-1.8517 0.0461-3.703-0.0198-5.5537 0.0498-1.7547 0.0331-3.5087 0.0436-5.2628-0.0821-1.7876 0.0368-3.5764-0.0623-5.3637 0.0255-1.7036-0.0742-3.412 0.13161-5.111-0.0226-2.1884 1.0128-4.184 1.8901-6.2581 1.8959-1.9958 2.0796-4.3891 3.5404-6.5248 1.2162-1.1689 0.70744-2.4044 1.9103-3.5723 0.59402-0.57673 1.6724-0.87745 2.1784-1.4935 0.29483-0.35897 0.37618-0.78458 0.56428-1.1769 11.243-9.6313 28.163-17.956 45.897-17.231 2.5975 0.0356 5.2175 0.0779 7.7761 0.41555 3.1622 0.42242 6.2223 1.1351 9.3738 1.5903 3.8382 0.1101 7.5276 0.52706 10.975 1.7756 3.8712 0.85399 7.6745 1.7971 10.993 3.4887 2.7 1.4786 5.5769 2.8856 6.9824 5.1651 0.0283 1.584-0.11237 3.1698 0.017 4.7543 0.0487 1.8279 0.0631 3.6555-0.0371 5.4827-0.0365 0.90285-0.39777 3.6598-1.1664 4.3499-0.28162 0.25298-0.89506 0.14428-1.3426 0.21656-0.22332 0.3021-0.44637 0.60419-0.66957 0.90628-0.73328 2.8578-1.5994 3.8874-4.6915 5.8713-3.4657 4.5731 1.441-1.3793-2.681 2.1525-0.45811 0.39252-0.43765 0.98861-0.88561 1.3868-1.2306 1.0938-2.8624 1.2346-3.3622 3.2638-5.6784 1.5466 1.9938-0.77348-2.927 1.4873-0.54333 0.24962-1.3083 0.16137-1.8702 0.39006-5.3094 2.1607-27.377 15.552-43.182 16.925-6.6852 0.0885-13.372-0.0832-20.057 0.0588l35.728-18.093z"/>
   <path id="path3388" d="m629.85 333.65c-0.16756 3.8881-0.0388 7.7782-0.0354 11.667 0.22699 2.65-0.23266 5.3368 0.21935 7.9739 0.93618 2.5012 1.7326 5.0185 2.3776 7.5636 0.45763 1.8766 0.38464 3.7814 0.53425 5.6734-0.0141 1.8041-0.0198 3.6086-0.0507 5.4127 0.0773 1.7193-0.008 3.4402 0.006 5.1604 0.0198 1.7814 0.0198 3.5634-0.008 5.345 0.0255 1.9653 0.003 3.9341-0.017 5.9006 0.0348 1.8326 0.0255 3.6636 0.0342 5.4963-0.0255 1.8008 0.0226 3.6011-0.008 5.4019 0.0283 1.6654 0.006 3.329 0.0113 4.9944-0.0444 1.6931-0.003 3.3852 0.0283 5.0779 0.29685 10.758 25.756-4.4891-39.503 13.041-0.7849 0.21095 0.003-1.1726 0.0113-1.7589 0.0971-6.7905-0.006 2.8298 0.0654-4.3577-0.008-5.8429 1.4272-11.617 2.1696-17.424 0.57085-4.5333 0.67554-9.0806 0.69371-13.627-0.23633-2.3695 0.63898-4.6572 2.3579-6.695 1.2443-0.72546 1.5716-1.888 2.4631-2.7658 0.98628-0.97102 1.9401-0.8189 2.8096-1.9812 1.4618-1.4852 3.7451-2.4492 5.3337-3.8377 2.3347-1.4412 4.7157-2.7586 6.5488-4.5252 2.4537-1.2162 4.7655-2.759 6.4659-4.5116 12.791-9.1335 10.217-5.4892 42.486-18.068 11.84-4.6156-44.515 20.941-35.494 13.879 14.024-6.9584 27.668-16.858 45.303-18.433 2.416-0.0378 4.8258 0.006 7.2396 0.056 0.42822-1.2582 2.8022-1.7271 4.3708-2.2733-12.219 4.9275-24.438 9.8549-36.657 14.782 0.27737-0.19863 0.55443-0.39734 0.83166-0.596l41.091-11.773c-0.31122 0.18995-0.62247 0.37975-0.9337 0.56964-12.982 5.4486-25.948 10.917-38.947 16.346-0.96543 0.40317-3.2243 1.3912-4.4075 1.4007-0.4702 0.003-0.90627-0.1751-1.3594-0.26279-2.1447 0.014-4.3576 0.0751-6.3379 0.70392-13.556 5.3965 5.6243-2.2356 35.616-14.53 0.40119-0.16445-0.89993 0.2188-1.252 0.43088-0.83175 0.50108-1.1313 1.3575-1.9978 1.8292-0.37634 0.2048-0.88742 0.24598-1.3311 0.36897-14.575 4.1834-27.19 7.7438-40.383 16.842-10.071 6.945 24.464-9.9641 36.728-14.906 1.1818-0.47621-4.1958 1.2524-3.596 1.7522-1.5768 0.76343-1.796 1.6363-2.9303 2.6227-1.0225 0.88918-2.9041 1.1017-3.2764 2.4055-3.0839 0.51481-3.7172 3.1787-6.6972 4.1696-2.7655 1.2281 0.48306-0.40081-1.7825 1.4253-1.0081 0.81262-1.0444 0.0563-2.0971 0.84335-0.31686 0.23702-0.32017 0.62609-0.6325 0.86588-0.25869 0.19863-0.67166 0.26222-1.0075 0.39322-2.3947 1.0328 0.13076-0.31116-1.5342 1.899-0.81845 1.0865-1.3752 0.10141-2.5716 0.70181-0.83124 0.41718-0.42458 1.5505-1.2947 1.9424-1.9754 1.4022-3.7134 2.9651-3.6908 4.9791-0.18623 4.6535-0.45834 9.3086-0.93576 13.953-0.67551 5.7122-2.1065 11.4-2.1473 17.124 0.0141 1.5026 0.38495 5.926 0.0767 6.062-65.861 29.088-39.794 25.956-39.503 15.017 0.03-1.6992 0.0719-3.3976 0.0283-5.0972 0.006-1.6681-0.017-3.3345 0.0113-5.0025-0.03-1.7989 0.0198-3.5973-0.008-5.3962 0.0113-1.8407-0.0004-3.6798 0.0343-5.5205-0.0198-1.9624-0.045-3.9268-0.017-5.8879-0.0283-1.78-0.0283-3.5605-0.009-5.3404 0.0142-1.7248-0.0705-3.4506 0.017-5.1744-0.0226-1.7847-0.008-3.5695-0.0226-5.3541 0.0996-1.7736 0.003-3.5547-0.17548-5.3244-0.41277-2.528-1.0867-5.0265-2.1967-7.4556-0.99203-2.7955-0.40967-5.6885-0.49322-8.5511 0.003-3.8807 0.13246-7.7625-0.0354-11.642l39.415-13.998z"/>
  </g>
 </g>
</svg>
